<svg width="36.406250" height="38.000000" viewBox="0 0 36.4062 38" fill="none" xmlns="http://www.w3.org/2000/svg" xmlns:xlink="http://www.w3.org/1999/xlink">
	<desc>
			Created with Pixso.
	</desc>
	<defs>
		<filter id="filter_20_72_dd" x="0.000000" y="0.000000" width="36.406250" height="38.000000" filterUnits="userSpaceOnUse" color-interpolation-filters="sRGB">
			<feFlood flood-opacity="0" result="BackgroundImageFix"/>
			<feColorMatrix in="SourceAlpha" type="matrix" values="0 0 0 0 0 0 0 0 0 0 0 0 0 0 0 0 0 0 127 0" result="hardAlpha"/>
			<feOffset dx="0" dy="4"/>
			<feGaussianBlur stdDeviation="1.33333"/>
			<feComposite in2="hardAlpha" operator="out" k2="-1" k3="1"/>
			<feColorMatrix type="matrix" values="0 0 0 0 0 0 0 0 0 0 0 0 0 0 0 0 0 0 0.25 0"/>
			<feBlend mode="normal" in2="BackgroundImageFix" result="effect_dropShadow_1"/>
			<feBlend mode="normal" in="SourceGraphic" in2="effect_dropShadow_1" result="shape"/>
		</filter>
	</defs>
	<g filter="url(#filter_20_72_dd)">
		<path id="Shape" d="M12.877 0L23.5293 0C28.4312 0 32.4062 4.19824 32.4062 9.375L32.4062 20.625C32.4062 25.8018 28.4312 30 23.5293 30L12.877 30C7.9751 30 4 25.8018 4 20.625L4 9.375C4 4.19824 7.9751 0 12.877 0ZM23.5293 27.1875C26.9556 27.1875 29.7432 24.2437 29.7432 20.625L29.7432 9.375C29.7432 5.75635 26.9556 2.8125 23.5293 2.8125L12.877 2.8125C9.4502 2.8125 6.66309 5.75635 6.66309 9.375L6.66309 20.625C6.66309 24.2437 9.4502 27.1875 12.877 27.1875L23.5293 27.1875Z" clip-rule="evenodd" fill="#FFFFFF" fill-opacity="1.000000" fill-rule="evenodd"/>
		<path id="Shape" d="M11.1016 15C11.1016 10.8579 14.2812 7.5 18.2031 7.5C22.125 7.5 25.3047 10.8579 25.3047 15C25.3047 19.1421 22.125 22.5 18.2031 22.5C14.2812 22.5 11.1016 19.1421 11.1016 15ZM13.7646 15C13.7646 17.584 15.7563 19.6875 18.2031 19.6875C20.6494 19.6875 22.6416 17.584 22.6416 15C22.6416 12.4146 20.6494 10.3125 18.2031 10.3125C15.7563 10.3125 13.7646 12.4146 13.7646 15Z" clip-rule="evenodd" fill="#FFFFFF" fill-opacity="1.000000" fill-rule="evenodd"/>
		<ellipse id="Oval" cx="25.836914" cy="6.937500" rx="0.946350" ry="0.999375" fill="#FFFFFF" fill-opacity="1.000000"/>
	</g>
</svg>
