<svg width="96.000000" height="32.000000" viewBox="0 0 96 32" fill="none" xmlns="http://www.w3.org/2000/svg" xmlns:xlink="http://www.w3.org/1999/xlink">
	<desc>
			Created with Pixso.
	</desc>
	<defs>
		<clipPath id="clip5_85">
			<rect rx="0.000000" width="95.000000" height="31.000000" transform="translate(0.500000 0.500000)" fill="white" fill-opacity="0"/>
		</clipPath>
	</defs>
	<g clip-path="url(#clip5_85)">
		<path d="M17.25 14.9Q17.7 13.32 17.7 11.41Q17.7 8.73 16.83 6.75Q16.32 5.61 15.51 4.76Q14.91 4.14 14.16 3.68Q12.36 2.59 9.57 2.59Q6.77 2.59 4.95 3.68Q4.14 4.17 3.51 4.84Q2.74 5.66 2.26 6.75Q1.39 8.72 1.39 11.38Q1.39 13.37 1.88 15Q2.37 16.63 3.38 17.8Q3.56 18.01 3.75 18.21Q4.65 19.09 5.91 19.6Q7.45 20.23 9.55 20.23L9.82 20.23L12.96 24.07L17.61 24.07L13.48 19.47Q14.61 18.96 15.42 18.14Q15.66 17.91 15.86 17.65Q16.8 16.49 17.25 14.9ZM38.18 20L42.54 2.86L38.97 2.86L36.79 12.21Q36.66 12.78 36.49 13.61Q36.32 14.44 36.17 15.28Q36.02 16.12 35.94 16.7Q35.9 16.27 35.8 15.68Q35.7 15.08 35.58 14.46Q35.46 13.84 35.35 13.31Q35.24 12.78 35.16 12.46L32.66 2.86L29.23 2.86L26.73 12.46Q26.64 12.79 26.52 13.32Q26.4 13.84 26.29 14.46Q26.18 15.07 26.09 15.66Q25.99 16.26 25.93 16.7Q25.89 16.27 25.79 15.68Q25.69 15.08 25.57 14.45Q25.44 13.81 25.32 13.22Q25.2 12.64 25.1 12.21L22.91 2.86L19.34 2.86L23.71 20L27.83 20L30.14 11.02Q30.21 10.74 30.33 10.2Q30.45 9.66 30.57 9.04Q30.69 8.42 30.79 7.87Q30.89 7.32 30.93 6.99Q30.96 7.32 31.06 7.87Q31.16 8.43 31.29 9.06Q31.42 9.68 31.54 10.21Q31.65 10.74 31.72 11L34.04 20L38.18 20ZM44.94 20L54.8 20L54.8 17L48.57 17L48.57 12.58L54.37 12.58L54.37 9.6L48.57 9.6L48.57 5.84L54.8 5.84L54.8 2.86L44.94 2.86L44.94 20ZM67.46 3.42Q65.94 2.86 63.61 2.86L58.62 2.86L58.62 20L62.25 20L62.25 13.42L64.18 13.42L68.27 20L72.3 20L67.27 12.53Q67.44 12.45 67.6 12.37Q68.26 12.02 68.84 11.53Q69.03 11.37 69.2 11.19Q69.68 10.69 70.01 10.05Q70.45 9.17 70.45 8Q70.45 6.26 69.72 5.12Q69.65 5.03 69.59 4.94Q68.85 3.94 67.46 3.42ZM5.65 14.49Q5.2 13.2 5.2 11.41Q5.2 9.6 5.65 8.31Q6.04 7.18 6.82 6.51Q6.94 6.4 7.07 6.31Q8.03 5.62 9.57 5.62Q11.27 5.62 12.26 6.45Q12.62 6.75 12.89 7.16Q13.89 8.71 13.89 11.41Q13.89 13.2 13.45 14.49Q13.07 15.61 12.3 16.29Q12.18 16.39 12.05 16.49Q11.09 17.18 9.55 17.18Q8.02 17.18 7.06 16.49Q6.95 16.4 6.84 16.31Q6.05 15.63 5.65 14.49ZM62.25 5.84L63.35 5.84Q65.11 5.84 65.95 6.35Q66.19 6.5 66.36 6.7Q66.79 7.22 66.79 8.09Q66.79 8.93 66.39 9.48Q66.23 9.69 66.01 9.86Q65.23 10.47 63.42 10.47L62.25 10.47L62.25 5.84ZM76.46 6.89L72.54 6.89L77.75 19.9L77.54 20.55Q77.34 21.14 77.01 21.64Q76.99 21.68 76.96 21.71Q76.72 22.07 76.4 22.32Q76.24 22.46 76.06 22.56Q75.52 22.88 74.77 22.88Q74.36 22.88 73.99 22.83Q73.61 22.78 73.37 22.73L73.37 25.56Q73.68 25.63 74.13 25.7Q74.57 25.76 75.18 25.76Q76.44 25.76 77.48 25.3Q77.67 25.22 77.84 25.13Q78.67 24.69 79.34 23.94Q80.15 23.03 80.65 21.67L86.2 6.89L82.37 6.89L79.94 14.26Q79.75 14.8 79.63 15.35Q79.51 15.91 79.44 16.54L79.37 16.54Q79.33 16.12 79.27 15.73Q79.21 15.34 79.13 14.98Q79.05 14.62 78.93 14.26L76.46 6.89Z" fill="#FFFFFF" fill-opacity="1.000000" fill-rule="evenodd"/>
	</g>
</svg>
