<svg width="169.615234" height="46.335938" viewBox="0 0 169.615 46.3359" fill="none" xmlns="http://www.w3.org/2000/svg" xmlns:xlink="http://www.w3.org/1999/xlink">
	<desc>
			Created with Pixso.
	</desc>
	<defs/>
	<path id="QWERy" d="M31.72 24.62Q32.62 21.44 32.62 17.62Q32.62 12.28 30.87 8.32Q29.86 6.02 28.23 4.33Q27.04 3.09 25.53 2.17Q21.93 0 16.35 0Q10.75 0 7.12 2.17Q5.49 3.15 4.24 4.48Q2.71 6.12 1.74 8.3Q0 12.25 0 17.57Q0 21.56 0.98 24.82Q1.96 28.07 3.97 30.42Q4.33 30.84 4.72 31.22Q6.52 32.99 9.04 34.01Q12.11 35.27 16.31 35.27L16.85 35.27L23.13 42.96L32.43 42.96L24.18 33.75Q26.43 32.72 28.06 31.09Q28.53 30.62 28.94 30.11Q30.82 27.79 31.72 24.62ZM73.58 34.8L82.3 0.53L75.15 0.53L70.79 19.24Q70.53 20.36 70.19 22.03Q69.85 23.69 69.56 25.37Q69.26 27.04 69.1 28.21Q69.01 27.35 68.81 26.16Q68.61 24.98 68.37 23.74Q68.14 22.5 67.92 21.43Q67.69 20.36 67.53 19.73L62.54 0.53L55.67 0.53L50.68 19.73Q50.49 20.39 50.26 21.44Q50.02 22.5 49.8 23.73Q49.58 24.96 49.39 26.14Q49.2 27.32 49.08 28.21Q48.99 27.35 48.79 26.16Q48.59 24.98 48.35 23.7Q48.1 22.42 47.85 21.25Q47.61 20.08 47.42 19.24L43.04 0.53L35.89 0.53L44.63 34.8L52.88 34.8L57.5 16.85Q57.64 16.28 57.87 15.21Q58.11 14.13 58.35 12.89Q58.6 11.64 58.8 10.54Q59 9.44 59.07 8.78Q59.14 9.44 59.34 10.55Q59.54 11.67 59.8 12.92Q60.05 14.17 60.29 15.23Q60.52 16.28 60.66 16.8L65.3 34.8L73.58 34.8ZM87.09 34.8L106.82 34.8L106.82 28.8L94.35 28.8L94.35 19.96L105.96 19.96L105.96 14.01L94.35 14.01L94.35 6.49L106.82 6.49L106.82 0.53L87.09 0.53L87.09 34.8ZM132.13 1.66Q129.1 0.53 124.44 0.53L114.45 0.53L114.45 34.8L121.72 34.8L121.72 21.65L125.58 21.65L133.76 34.8L141.83 34.8L131.75 19.87Q132.09 19.71 132.42 19.54Q133.73 18.85 134.89 17.88Q135.27 17.56 135.62 17.2Q136.58 16.19 137.23 14.9Q138.12 13.14 138.12 10.8Q138.12 7.33 136.65 5.06Q136.52 4.87 136.39 4.69Q134.92 2.69 132.13 1.66ZM8.51 23.8Q7.61 21.21 7.61 17.62Q7.61 14.01 8.51 11.42Q9.3 9.17 10.86 7.82Q11.1 7.62 11.35 7.44Q13.28 6.04 16.35 6.04Q19.75 6.04 21.74 7.71Q22.45 8.32 22.99 9.14Q25 12.23 25 17.62Q25 21.21 24.12 23.8Q23.36 26.04 21.82 27.38Q21.58 27.59 21.32 27.78Q19.4 29.17 16.31 29.17Q13.26 29.17 11.34 27.78Q11.11 27.61 10.9 27.43Q9.31 26.08 8.51 23.8ZM121.72 6.49L123.92 6.49Q127.44 6.49 129.11 7.52Q129.59 7.81 129.93 8.22Q130.79 9.24 130.79 10.99Q130.79 12.67 129.99 13.76Q129.67 14.2 129.23 14.54Q127.67 15.75 124.06 15.75L121.72 15.75L121.72 6.49ZM150.13 8.6L142.31 8.6L152.71 34.61L152.29 35.9Q151.9 37.08 151.24 38.09Q151.19 38.16 151.14 38.23Q150.66 38.94 150.02 39.46Q149.7 39.72 149.34 39.93Q148.26 40.57 146.76 40.57Q145.94 40.57 145.19 40.47Q144.44 40.38 143.95 40.26L143.95 45.93Q144.58 46.07 145.47 46.2Q146.36 46.33 147.58 46.33Q150.09 46.33 152.19 45.42Q152.55 45.26 152.91 45.07Q154.57 44.18 155.9 42.69Q157.52 40.87 158.52 38.15L169.61 8.6L161.95 8.6L157.1 23.34Q156.72 24.42 156.47 25.52Q156.23 26.62 156.09 27.89L155.95 27.89Q155.88 27.04 155.76 26.27Q155.64 25.5 155.48 24.77Q155.31 24.04 155.08 23.34L150.13 8.6Z" fill="#FFFFFF" fill-opacity="1.000000" fill-rule="evenodd"/>
</svg>
